<svg id="SvgjsSvg1107" width="266" height="45" xmlns="http://www.w3.org/2000/svg" version="1.1" xmlns:xlink="http://www.w3.org/1999/xlink" xmlns:svgjs="http://svgjs.com/svgjs"><defs id="SvgjsDefs1108"><svg width="50px" height="50px" xmlns="http://www.w3.org/2000/svg" xmlns:xlink="http://www.w3.org/1999/xlink" version="1.1" x="0px" y="0px" viewBox="0 0 300 300" enable-background="new 0 0 300 300" id="a1481040923035"><path d="M230.223,280H69.777C42.33,280,20,257.671,20,230.225V69.777C20,42.33,42.33,20,69.777,20h160.445  C257.67,20,280,42.33,280,69.777v160.448C280,257.671,257.67,280,230.223,280z M69.777,30C47.844,30,30,47.844,30,69.777v160.448  C30,252.158,47.844,270,69.777,270h160.445C252.156,270,270,252.158,270,230.225V69.777C270,47.844,252.156,30,230.223,30H69.777z"></path><g><path d="M178.597,170.286l-14.634-14.634c4.461-6.346,7.092-14.068,7.092-22.398c0-21.528-17.515-39.043-39.043-39.043   s-39.043,17.515-39.043,39.043c0,21.529,17.515,39.044,39.043,39.044c9.599,0,18.394-3.488,25.199-9.256l14.315,14.315   L178.597,170.286z M132.012,162.297c-16.015,0-29.043-13.029-29.043-29.044c0-16.014,13.028-29.043,29.043-29.043   s29.043,13.029,29.043,29.043C161.055,149.268,148.026,162.297,132.012,162.297z"></path><rect x="190.617" y="185.306" transform="matrix(0.7071 -0.7071 0.7071 0.7071 -80.1498 195.2533)" width="9.999" height="18.14"></rect></g></svg><!--?xml version="1.0"?-->
<svg width="260.715826087px" height="86.5634782609px" id="t1481040923035"><path fill="#9BAAC1" d="M14.2747826087,19.627826087c-0.438260869565-1.06434782609-1.06434782609-1.72173913043-2.09739130435-2.09739130435c-0.626086956522-0.250434782609-1.18956521739-0.406956521739-1.81565217391-0.406956521739c-0.751304347826,0-1.53391304348-0.0313043478261-2.31652173913-0.0313043478261c-0.56347826087-0.0313043478261-0.813913043478-0.0626086956522-0.939130434783,0.0939130434783c-0.0313043478261,0-0.0626086956522,0.0626086956522-0.0939130434783,0.250434782609c-0.0626086956522,0.187826086957-0.0939130434783,0.406956521739-0.15652173913,0.72c-0.0313043478261,0.125217391304-0.0626086956522,0.250434782609-0.0626086956522,0.406956521739l0,0.500869565217l0,2.94260869565l0,0.970434782609c0,0.438260869565-0.0313043478261,0.87652173913-0.0313043478261,1.3147826087c0,0.626086956522,0.0313043478261,0.72,0.657391304348,0.72c0.907826086957,0.0313043478261,1.81565217391-0.0313043478261,2.7547826087-0.0313043478261c1.03304347826,0,1.94086956522-0.125217391304,2.62956521739-0.751304347826c0.125217391304-0.125217391304,0.250434782609-0.15652173913,0.406956521739-0.219130434783c1.00173913043-0.438260869565,1.40869565217-1.22086956522,1.44-2.34782608696c0.0313043478261-0.72-0.0939130434783-1.37739130435-0.375652173913-2.0347826087z M22.2573913043,43.1373913043c-1.53391304348-0.250434782609-3.16173913043-0.0939130434783-4.72695652174-0.125217391304c-0.657391304348,0-1.34608695652-0.187826086957-1.69043478261-1.00173913043c-0.0626086956522-0.15652173913-0.15652173913-0.313043478261-0.250434782609-0.469565217391s-0.219130434783-0.344347826087-0.313043478261-0.594782608696c-0.406956521739-1.15826086957-0.813913043478-2.37913043478-1.22086956522-3.56869565217c-0.0626086956522-0.219130434783-0.15652173913-0.532173913043-0.187826086957-0.813913043478c-0.0626086956522-1.97217391304-1.15826086957-3.41217391304-2.56695652174-4.82086956522c-0.219130434783-0.250434782609-0.500869565217-0.344347826087-0.845217391304-0.344347826087c-1.06434782609,0-2.16-0.0313043478261-3.25565217391-0.281739130435c-0.0626086956522,0-0.125217391304,0.0313043478261-0.15652173913,0.0313043478261c-0.0939130434783,0-0.219130434783,0-0.187826086957,0.0939130434783c0.15652173913,0.845217391304,0.187826086957,1.69043478261,0.187826086957,2.53565217391c0,0.813913043478-0.0313043478261,1.62782608696,0,2.44173913043l0,0.406956521739l0,0.250434782609c0.187826086957,0.907826086957,0.15652173913,1.81565217391,0.0626086956522,2.66086956522s-0.250434782609,1.65913043478-0.313043478261,2.50434782609c-0.0313043478261,0.657391304348-0.56347826087,0.970434782609-0.970434782609,1.09565217391c-0.187826086957,0.0626086956522-0.375652173913,0.0939130434783-0.56347826087,0.0939130434783c-1.3147826087,0.0313043478261-2.59826086957,0.0626086956522-3.91304347826,0.0626086956522c-0.782608695652,0-1.53391304348-0.344347826087-1.69043478261-1.18956521739c-0.0626086956522-0.250434782609-0.0626086956522-0.532173913043-0.0626086956522-0.813913043478l0-7.54434782609l0-11.6139130435c0-0.594782608696,0.0626086956522-1.18956521739,0.0939130434783-1.75304347826c0-0.125217391304,0.0313043478261-0.219130434783,0.0313043478261-0.344347826087c0.0313043478261-0.0626086956522,0.0313043478261-0.125217391304,0.0313043478261-0.125217391304c-0.219130434783-1.18956521739-0.250434782609-2.34782608696-0.219130434783-3.50608695652c0.0313043478261-1.12695652174,0.0939130434783-2.25391304348,0.0313043478261-3.34956521739c0-0.187826086957,0-0.375652173913,0.0313043478261-0.532173913043c0.0939130434783-0.845217391304,0.626086956522-1.34608695652,1.44-1.44l0.187826086957,0l3.34956521739,0l-0.469565217391,0.438260869565c1.18956521739-0.438260869565,1.87826086957-0.344347826087,2.53565217391-0.313043478261c0.657391304348,0.0626086956522,1.3147826087,0.0626086956522,1.94086956522,0s1.25217391304,0,1.87826086957,0.0313043478261c0.594782608696,0.0313043478261,1.12695652174,0.0313043478261,1.72173913043-0.0939130434783c2.06608695652,0.0626086956522,4.03826086957,0.406956521739,5.82260869565,1.59652173913l0.0939130434783,0.0939130434783c0.469565217391,0.281739130435,0.939130434783,0.56347826087,1.37739130435,0.907826086957c0.469565217391,0.375652173913,0.907826086957,0.845217391304,1.18956521739,1.50260869565c0.187826086957,0.500869565217,0.438260869565,1.00173913043,0.657391304348,1.50260869565c0.250434782609,0.500869565217,0.469565217391,1.03304347826,0.594782608696,1.65913043478c0.15652173913,0.782608695652,0.281739130435,1.59652173913,0.187826086957,2.44173913043c0,0.0626086956522-0.0313043478261,0.0939130434783-0.0313043478261,0.15652173913c0.187826086957,0.87652173913,0.0939130434783,1.62782608696-0.0939130434783,2.37913043478c-0.219130434783,0.688695652174-0.500869565217,1.37739130435-0.782608695652,2.06608695652c-0.469565217391,1.25217391304-1.47130434783,2.06608695652-2.44173913043,2.91130434783c-0.219130434783,0.187826086957-0.469565217391,0.344347826087-0.688695652174,0.532173913043c-0.0626086956522,0.0313043478261-0.0313043478261,0.0939130434783,0,0.15652173913c0.406956521739,0.500869565217,0.782608695652,1.06434782609,1.22086956522,1.53391304348c0.87652173913,0.939130434783,1.3147826087,2.0347826087,1.5652173913,3.19304347826c0.125217391304,0.688695652174,0.250434782609,1.40869565217,0.657391304348,2.0347826087c0.313043478261,0.438260869565,0.469565217391,1.03304347826,0.532173913043,1.5652173913c0.125217391304,1.09565217391,0.594782608696,2.06608695652,1.18956521739,3.0052173913c0.344347826087,0.532173913043,0.469565217391,1.09565217391,0.375652173913,1.69043478261c-0.0939130434783,0.626086956522-0.626086956522,1.15826086957-1.34608695652,1.06434782609z M53.956173913,28.2365217391c-0.0626086956522,1.81565217391-0.281739130435,3.69391304348-0.751304347826,5.47826086957c-0.688695652174,2.53565217391-1.78434782609,5.00869565217-4.03826086957,6.76173913043c-0.313043478261,0.219130434783-0.594782608696,0.469565217391-0.939130434783,0.594782608696c-1.72173913043,0.72-3.44347826087,1.53391304348-5.22782608696,2.0347826087c-0.56347826087,0.15652173913-1.15826086957,0.219130434783-1.72173913043,0.187826086957c-1.44-0.0626086956522-2.88,0-4.32-0.281739130435l-0.0626086956522,0c-0.0939130434783,0-0.187826086957-0.0313043478261-0.281739130435-0.0626086956522c-1.65913043478-0.56347826087-3.31826086957-0.970434782609-4.85217391304-1.87826086957c-1.09565217391-0.626086956522-1.90956521739-1.50260869565-2.56695652174-2.53565217391c-0.313043478261-0.469565217391-0.56347826087-0.970434782609-0.87652173913-1.44c-1.09565217391-1.50260869565-1.78434782609-3.16173913043-2.09739130435-5.00869565217c-0.187826086957-1.12695652174-0.313043478261-2.22260869565-0.313043478261-3.34956521739c0-0.406956521739,0.0313043478261-0.813913043478-0.0313043478261-1.22086956522c-0.15652173913-0.813913043478-0.125217391304-1.59652173913,0-2.41043478261c0.0626086956522-0.250434782609,0.0626086956522-0.500869565217,0.0313043478261-0.813913043478c0-0.313043478261-0.0313043478261-0.626086956522-0.0626086956522-0.939130434783c0-0.219130434783-0.0313043478261-0.438260869565-0.0626086956522-0.688695652174s-0.0626086956522-0.532173913043-0.0313043478261-0.813913043478c0.15652173913-0.939130434783,0.187826086957-1.84695652174,0.187826086957-2.78608695652c0-0.970434782609-0.0313043478261-1.90956521739,0-2.88c0-0.845217391304,0.0626086956522-1.72173913043-0.15652173913-2.53565217391c-0.0939130434783-0.344347826087-0.0626086956522-0.688695652174-0.0313043478261-1.03304347826c0.0626086956522-0.594782608696,0.344347826087-1.18956521739,1.12695652174-1.34608695652c0.219130434783-0.0313043478261,0.406956521739-0.0939130434783,0.626086956522-0.125217391304c0.219130434783-0.0626086956522,0.500869565217-0.125217391304,0.813913043478-0.0626086956522c0.939130434783,0.187826086957,1.90956521739,0,2.88-0.0313043478261c0.219130434783,0,0.438260869565,0,0.626086956522,0.0313043478261c0.72,0.0939130434783,1.18956521739,0.532173913043,1.22086956522,1.28347826087c0.0626086956522,0.813913043478,0.0313043478261,1.62782608696,0.0939130434783,2.44173913043c0.0313043478261,0.594782608696,0.125217391304,1.18956521739,0.187826086957,1.81565217391c0.0313043478261,0.187826086957,0.0626086956522,0.375652173913,0.0626086956522,0.594782608696c0.0626086956522,2.25391304348,0.0939130434783,4.47652173913,0.125217391304,7.2l-0.125217391304,0l0,6.10434782609c0,0.187826086957,0.0626086956522,0.375652173913,0.0939130434783,0.469565217391c0.344347826087,0.688695652174,0.657391304348,1.34608695652,1.06434782609,1.97217391304c0.688695652174,1.12695652174,1.65913043478,1.90956521739,2.88,2.44173913043c1.25217391304,0.56347826087,2.44173913043,0.594782608696,3.78782608696,0.406956521739s2.47304347826-0.688695652174,3.4747826087-1.53391304348c0.281739130435-0.250434782609,0.532173913043-0.626086956522,0.751304347826-0.907826086957c0.688695652174-0.87652173913,0.970434782609-1.97217391304,1.15826086957-3.09913043478c0.219130434783-1.47130434783,0.219130434783-2.97391304348,0.250434782609-4.47652173913c0.0313043478261-0.657391304348-0.0939130434783-1.3147826087-0.125217391304-1.94086956522c-0.0313043478261-0.438260869565-0.0626086956522-0.87652173913-0.0626086956522-1.3147826087c-0.0313043478261-1.25217391304-0.0313043478261-2.47304347826-0.0626086956522-3.7252173913c0-0.281739130435-0.0313043478261-0.594782608696-0.0939130434783-0.907826086957c-0.281739130435-1.40869565217-0.187826086957-2.78608695652,0-4.13217391304c0.0626086956522-0.469565217391,0.0626086956522-0.939130434783,0.125217391304-1.40869565217c0.0626086956522-0.594782608696,0.469565217391-1.00173913043,1.06434782609-1.06434782609c0.15652173913,0,0.313043478261-0.0313043478261,0.469565217391-0.0313043478261l4.00695652174,0c0.313043478261,0,0.594782608696,0,0.907826086957,0.0313043478261c0.469565217391,0.0626086956522,0.845217391304,0.406956521739,0.87652173913,0.939130434783c0.0313043478261,0.87652173913,0.125217391304,1.75304347826,0,2.62956521739c-0.0939130434783,0.845217391304-0.125217391304,1.62782608696,0,2.41043478261c0.125217391304,0.939130434783,0.0626086956522,1.87826086957,0.0626086956522,2.78608695652c0,2.72347826087,0.0626086956522,5.44695652174-0.0626086956522,8.17043478261z M64.555826087,25.8260869566c0,0.219130434783,0.0313043478261,0.438260869565,0.0313043478261,0.657391304348c0,0.375652173913,0.0626086956522,0.751304347826,0.0626086956522,1.12695652174c-0.0626086956522,1.06434782609-0.15652173913,2.12869565217-0.219130434783,3.22434782609c-0.0313043478261,0.626086956522-0.125217391304,1.28347826087-0.125217391304,1.90956521739c-0.0313043478261,0.782608695652-0.0626086956522,1.53391304348,0.0313043478261,2.2852173913c0.250434782609,1.84695652174,0.15652173913,3.69391304348,0.0939130434783,5.54086956522c0,0.15652173913-0.0313043478261,0.344347826087-0.0939130434783,0.532173913043c-0.375652173913,1.06434782609-0.72,1.90956521739-2.50434782609,1.81565217391c-1.09565217391-0.0626086956522-2.22260869565-0.125217391304-3.34956521739-0.187826086957c-0.187826086957-0.0313043478261-0.375652173913-0.0313043478261-0.594782608696-0.0626086956522c-1.12695652174-0.187826086957-1.81565217391-1.00173913043-1.44-2.19130434783c0.281739130435-0.813913043478,0.219130434783-1.65913043478,0.219130434783-2.50434782609l0-11.5826086957c0-0.344347826087,0.0626086956522-0.688695652174,0.0939130434783-1.00173913043c0-0.15652173913,0.0313043478261-0.281739130435,0.0313043478261-0.438260869565c0.0313043478261-0.125217391304,0.0313043478261-0.219130434783,0-0.281739130435c-0.15652173913-0.751304347826-0.187826086957-1.47130434783-0.187826086957-2.22260869565c0-0.72,0.0313043478261-1.44,0-2.16c0-0.219130434783,0-0.438260869565,0.0626086956522-0.688695652174c0.375652173913-1.50260869565,0.250434782609-3.06782608696,0.250434782609-4.60173913043l0-3.0052173913c0.438260869565-0.187826086957,0.56347826087-0.250434782609,0.688695652174-0.313043478261s0.313043478261-0.125217391304,0.500869565217-0.15652173913c1.25217391304-0.219130434783,2.44173913043-0.500869565217,3.7252173913-0.281739130435c0.438260869565,0.0626086956522,0.907826086957,0.0313043478261,1.40869565217-0.0313043478261c0.626086956522-0.0626086956522,1.06434782609,0.187826086957,1.37739130435,0.688695652174c0.813913043478,1.3147826087,1.5652173913,2.66086956522,2.19130434783,4.06956521739c0.469565217391,1.00173913043,1.06434782609,1.94086956522,1.59652173913,2.91130434783c0.751304347826,1.28347826087,1.47130434783,2.59826086957,2.19130434783,3.91304347826l0.0939130434783,0.187826086957c0.0313043478261,0.0313043478261,0.0626086956522,0.0939130434783,0.0626086956522,0.125217391304c0.500869565217,0.751304347826,0.939130434783,1.53391304348,1.25217391304,2.44173913043c0.250434782609-0.15652173913,0.438260869565-0.344347826087,0.532173913043-0.626086956522c0.813913043478-1.84695652174,1.94086956522-3.53739130435,3.0052173913-5.25913043478c0.594782608696-0.970434782609,1.15826086957-2.00347826087,1.65913043478-3.0052173913c0.751304347826-1.53391304348,1.65913043478-2.97391304348,2.56695652174-4.38260869565c0.125217391304-0.15652173913,0.250434782609-0.281739130435,0.344347826087-0.406956521739c0.0939130434783-0.0939130434783,0.187826086957-0.15652173913,0.281739130435-0.250434782609c0.313043478261-0.375652173913,0.72-0.56347826087,1.22086956522-0.56347826087c1.44,0.0313043478261,2.88,0,4.32,0.0626086956522c0.313043478261,0,0.594782608696,0.0939130434783,0.87652173913,0.15652173913c0.219130434783,0.0626086956522,0.469565217391,0.15652173913,1.06434782609,0.281739130435c0.0939130434783,0.813913043478,0.187826086957,1.25217391304,0.250434782609,1.72173913043c0.0939130434783,0.500869565217,0.125217391304,1.00173913043,0.0313043478261,1.53391304348c-0.281739130435,1.47130434783-0.0313043478261,2.97391304348,0.15652173913,4.4452173913c0.0626086956522,0.532173913043,0.15652173913,1.06434782609,0.15652173913,1.59652173913c-0.0313043478261,0.594782608696,0,1.18956521739-0.0313043478261,1.81565217391c0,0.594782608696-0.0626086956522,1.25217391304-0.219130434783,1.87826086957l0,0.15652173913c0,1.65913043478-0.0626086956522,3.34956521739,0.0939130434783,4.97739130435c0.219130434783,2.0347826087,0.125217391304,4.03826086957,0.15652173913,6.04173913043c0,0.626086956522-0.0939130434783,1.25217391304-0.125217391304,1.84695652174c-0.0626086956522,0.907826086957-0.15652173913,1.81565217391,0.187826086957,2.69217391304c0.344347826087,0.813913043478,0.0313043478261,1.84695652174-0.87652173913,2.12869565217c-1.53391304348,0.469565217391-3.03652173913,0.939130434783-4.66434782609,0.907826086957c-0.939130434783-0.0313043478261-1.72173913043-0.406956521739-1.97217391304-1.47130434783c-0.15652173913-0.594782608696-0.344347826087-1.18956521739-0.438260869565-1.81565217391c-0.219130434783-1.47130434783-0.187826086957-2.97391304348,0-4.4452173913c0.0626086956522-0.469565217391,0.125217391304-0.970434782609,0.125217391304-1.44c-0.0313043478261-1.62782608696,0-3.22434782609-0.219130434783-4.85217391304c-0.125217391304-0.970434782609-0.0626086956522-1.97217391304-0.0626086956522-2.97391304348c0-0.250434782609,0.0313043478261-0.532173913043,0.0313043478261-0.813913043478c-0.0626086956522,0.0939130434783-0.0939130434783,0.15652173913-0.125217391304,0.250434782609c-0.500869565217,1.12695652174-1.00173913043,2.22260869565-1.50260869565,3.31826086957c-0.939130434783,1.94086956522-1.97217391304,3.85043478261-3.25565217391,5.6347826087c-0.594782608696,0.813913043478-1.09565217391,1.69043478261-1.65913043478,2.53565217391c-0.187826086957,0.313043478261-0.375652173913,0.594782608696-0.626086956522,0.87652173913c-0.532173913043,0.56347826087-1.50260869565,0.532173913043-1.94086956522-0.15652173913c-0.688695652174-1.06434782609-1.37739130435-2.06608695652-1.81565217391-3.25565217391c-0.219130434783-0.626086956522-0.438260869565-1.28347826087-0.939130434783-1.75304347826c-0.219130434783-0.187826086957-0.344347826087-0.438260869565-0.406956521739-0.657391304348c-0.250434782609-0.72-0.594782608696-1.37739130435-1.00173913043-2.0347826087c-0.438260869565-0.657391304348-0.907826086957-1.3147826087-1.28347826087-2.00347826087c-0.375652173913-0.594782608696-0.657391304348-1.22086956522-1.00173913043-1.84695652174c-0.0939130434783-0.187826086957-0.219130434783-0.375652173913-0.344347826087-0.56347826087z M99.3224347826,25.8260869566c0,0.219130434783,0.0313043478261,0.438260869565,0.0313043478261,0.657391304348c0,0.375652173913,0.0626086956522,0.751304347826,0.0626086956522,1.12695652174c-0.0626086956522,1.06434782609-0.15652173913,2.12869565217-0.219130434783,3.22434782609c-0.0313043478261,0.626086956522-0.125217391304,1.28347826087-0.125217391304,1.90956521739c-0.0313043478261,0.782608695652-0.0626086956522,1.53391304348,0.0313043478261,2.2852173913c0.250434782609,1.84695652174,0.15652173913,3.69391304348,0.0939130434783,5.54086956522c0,0.15652173913-0.0313043478261,0.344347826087-0.0939130434783,0.532173913043c-0.375652173913,1.06434782609-0.72,1.90956521739-2.50434782609,1.81565217391c-1.09565217391-0.0626086956522-2.22260869565-0.125217391304-3.34956521739-0.187826086957c-0.187826086957-0.0313043478261-0.375652173913-0.0313043478261-0.594782608696-0.0626086956522c-1.12695652174-0.187826086957-1.81565217391-1.00173913043-1.44-2.19130434783c0.281739130435-0.813913043478,0.219130434783-1.65913043478,0.219130434783-2.50434782609l0-11.5826086957c0-0.344347826087,0.0626086956522-0.688695652174,0.0939130434783-1.00173913043c0-0.15652173913,0.0313043478261-0.281739130435,0.0313043478261-0.438260869565c0.0313043478261-0.125217391304,0.0313043478261-0.219130434783,0-0.281739130435c-0.15652173913-0.751304347826-0.187826086957-1.47130434783-0.187826086957-2.22260869565c0-0.72,0.0313043478261-1.44,0-2.16c0-0.219130434783,0-0.438260869565,0.0626086956522-0.688695652174c0.375652173913-1.50260869565,0.250434782609-3.06782608696,0.250434782609-4.60173913043l0-3.0052173913c0.438260869565-0.187826086957,0.56347826087-0.250434782609,0.688695652174-0.313043478261s0.313043478261-0.125217391304,0.500869565217-0.15652173913c1.25217391304-0.219130434783,2.44173913043-0.500869565217,3.7252173913-0.281739130435c0.438260869565,0.0626086956522,0.907826086957,0.0313043478261,1.40869565217-0.0313043478261c0.626086956522-0.0626086956522,1.06434782609,0.187826086957,1.37739130435,0.688695652174c0.813913043478,1.3147826087,1.5652173913,2.66086956522,2.19130434783,4.06956521739c0.469565217391,1.00173913043,1.06434782609,1.94086956522,1.59652173913,2.91130434783c0.751304347826,1.28347826087,1.47130434783,2.59826086957,2.19130434783,3.91304347826l0.0939130434783,0.187826086957c0.0313043478261,0.0313043478261,0.0626086956522,0.0939130434783,0.0626086956522,0.125217391304c0.500869565217,0.751304347826,0.939130434783,1.53391304348,1.25217391304,2.44173913043c0.250434782609-0.15652173913,0.438260869565-0.344347826087,0.532173913043-0.626086956522c0.813913043478-1.84695652174,1.94086956522-3.53739130435,3.0052173913-5.25913043478c0.594782608696-0.970434782609,1.15826086957-2.00347826087,1.65913043478-3.0052173913c0.751304347826-1.53391304348,1.65913043478-2.97391304348,2.56695652174-4.38260869565c0.125217391304-0.15652173913,0.250434782609-0.281739130435,0.344347826087-0.406956521739c0.0939130434783-0.0939130434783,0.187826086957-0.15652173913,0.281739130435-0.250434782609c0.313043478261-0.375652173913,0.72-0.56347826087,1.22086956522-0.56347826087c1.44,0.0313043478261,2.88,0,4.32,0.0626086956522c0.313043478261,0,0.594782608696,0.0939130434783,0.87652173913,0.15652173913c0.219130434783,0.0626086956522,0.469565217391,0.15652173913,1.06434782609,0.281739130435c0.0939130434783,0.813913043478,0.187826086957,1.25217391304,0.250434782609,1.72173913043c0.0939130434783,0.500869565217,0.125217391304,1.00173913043,0.0313043478261,1.53391304348c-0.281739130435,1.47130434783-0.0313043478261,2.97391304348,0.15652173913,4.4452173913c0.0626086956522,0.532173913043,0.15652173913,1.06434782609,0.15652173913,1.59652173913c-0.0313043478261,0.594782608696,0,1.18956521739-0.0313043478261,1.81565217391c0,0.594782608696-0.0626086956522,1.25217391304-0.219130434783,1.87826086957l0,0.15652173913c0,1.65913043478-0.0626086956522,3.34956521739,0.0939130434783,4.97739130435c0.219130434783,2.0347826087,0.125217391304,4.03826086957,0.15652173913,6.04173913043c0,0.626086956522-0.0939130434783,1.25217391304-0.125217391304,1.84695652174c-0.0626086956522,0.907826086957-0.15652173913,1.81565217391,0.187826086957,2.69217391304c0.344347826087,0.813913043478,0.0313043478261,1.84695652174-0.87652173913,2.12869565217c-1.53391304348,0.469565217391-3.03652173913,0.939130434783-4.66434782609,0.907826086957c-0.939130434783-0.0313043478261-1.72173913043-0.406956521739-1.97217391304-1.47130434783c-0.15652173913-0.594782608696-0.344347826087-1.18956521739-0.438260869565-1.81565217391c-0.219130434783-1.47130434783-0.187826086957-2.97391304348,0-4.4452173913c0.0626086956522-0.469565217391,0.125217391304-0.970434782609,0.125217391304-1.44c-0.0313043478261-1.62782608696,0-3.22434782609-0.219130434783-4.85217391304c-0.125217391304-0.970434782609-0.0626086956522-1.97217391304-0.0626086956522-2.97391304348c0-0.250434782609,0.0313043478261-0.532173913043,0.0313043478261-0.813913043478c-0.0626086956522,0.0939130434783-0.0939130434783,0.15652173913-0.125217391304,0.250434782609c-0.500869565217,1.12695652174-1.00173913043,2.22260869565-1.50260869565,3.31826086957c-0.939130434783,1.94086956522-1.97217391304,3.85043478261-3.25565217391,5.6347826087c-0.594782608696,0.813913043478-1.09565217391,1.69043478261-1.65913043478,2.53565217391c-0.187826086957,0.313043478261-0.375652173913,0.594782608696-0.626086956522,0.87652173913c-0.532173913043,0.56347826087-1.50260869565,0.532173913043-1.94086956522-0.15652173913c-0.688695652174-1.06434782609-1.37739130435-2.06608695652-1.81565217391-3.25565217391c-0.219130434783-0.626086956522-0.438260869565-1.28347826087-0.939130434783-1.75304347826c-0.219130434783-0.187826086957-0.344347826087-0.438260869565-0.406956521739-0.657391304348c-0.250434782609-0.72-0.594782608696-1.37739130435-1.00173913043-2.0347826087c-0.438260869565-0.657391304348-0.907826086957-1.3147826087-1.28347826087-2.00347826087c-0.375652173913-0.594782608696-0.657391304348-1.22086956522-1.00173913043-1.84695652174c-0.0939130434783-0.187826086957-0.219130434783-0.375652173913-0.344347826087-0.56347826087z M136.249043478,30.3965217391c1.09565217391,0,2.16,0.15652173913,3.22434782609,0.313043478261c0.438260869565,0.0626086956522,0.907826086957,0.0313043478261,1.34608695652-0.0939130434783c0.751304347826-0.15652173913,1.53391304348-0.187826086957,2.31652173913-0.187826086957c0.250434782609,0,0.500869565217-0.0313043478261,0.782608695652-0.0626086956522c-0.0626086956522-0.250434782609-0.187826086957-0.500869565217-0.375652173913-0.813913043478c-0.250434782609-0.406956521739-0.500869565217-0.813913043478-0.688695652174-1.28347826087c-0.782608695652-2.12869565217-1.94086956522-4.10086956522-2.78608695652-6.19826086957c-0.250434782609,0.532173913043-0.532173913043,1.03304347826-0.782608695652,1.5652173913c-0.500869565217,1.06434782609-1.09565217391,2.09739130435-1.44,3.22434782609c-0.344347826087,1.03304347826-0.751304347826,2.06608695652-1.34608695652,3.03652173913c-0.0939130434783,0.125217391304-0.15652173913,0.281739130435-0.219130434783,0.438260869565c0,0-0.0313043478261,0.0313043478261-0.0313043478261,0.0626086956522z M156.096,42.9808695652c-0.250434782609-0.0313043478261-0.500869565217-0.0939130434783-0.751304347826-0.15652173913c-1.03304347826-0.219130434783-2.06608695652-0.219130434783-3.03652173913,0.125217391304c-0.56347826087,0.187826086957-1.09565217391,0.344347826087-1.69043478261,0.281739130435c-0.375652173913-0.0313043478261-0.907826086957-0.219130434783-1.06434782609-0.782608695652c-0.15652173913-0.438260869565-0.375652173913-0.87652173913-0.657391304348-1.28347826087c-0.313043478261-0.438260869565-0.657391304348-0.87652173913-0.939130434783-1.3147826087c-0.500869565217-0.813913043478-0.87652173913-1.69043478261-1.25217391304-2.56695652174c-0.15652173913-0.344347826087-0.313043478261-0.438260869565-0.626086956522-0.438260869565l-1.25217391304,0c-1.44,0-2.88,0.0313043478261-4.32,0.0626086956522c-0.845217391304,0.0313043478261-1.69043478261,0.15652173913-2.50434782609,0.125217391304c-0.845217391304,0-1.69043478261-0.125217391304-2.53565217391-0.187826086957c-0.281739130435,0-0.594782608696,0-0.907826086957,0.0313043478261c-0.344347826087,0-0.406956521739,0.125217391304-0.500869565217,0.469565217391c-0.219130434783,0.813913043478-0.469565217391,1.62782608696-0.72,2.41043478261c-0.406956521739,1.28347826087-1.25217391304,2.22260869565-2.22260869565,2.97391304348c-0.438260869565,0.344347826087-0.939130434783,0.532173913043-1.5652173913,0.375652173913c-1.06434782609-0.250434782609-2.19130434783-0.344347826087-3.31826086957-0.313043478261c-0.500869565217,0-0.970434782609-0.0626086956522-1.47130434783-0.0939130434783c-0.845217391304-0.0939130434783-1.22086956522-0.438260869565-1.28347826087-1.28347826087l0-0.594782608696c0-1.34608695652,0.375652173913-2.56695652174,0.87652173913-3.69391304348c0.845217391304-1.90956521739,1.72173913043-3.81913043478,2.59826086957-5.69739130435c0.0313043478261-0.0626086956522,0.0626086956522-0.125217391304,0.0939130434783-0.15652173913l0.0313043478261-0.0626086956522c0.751304347826-2.25391304348,1.87826086957-4.35130434783,2.81739130435-6.54260869565c0.0626086956522-0.0939130434783,0.0939130434783-0.219130434783,0.125217391304-0.313043478261c0.375652173913-1.5652173913,1.06434782609-2.97391304348,1.78434782609-4.35130434783c0.187826086957-0.313043478261,0.313043478261-0.626086956522,0.438260869565-0.939130434783c0.406956521739-1.15826086957,0.970434782609-2.22260869565,1.5652173913-3.28695652174c0.56347826087-1.03304347826,1.18956521739-2.0347826087,1.78434782609-3.06782608696c0.375652173913-0.657391304348,0.970434782609-1.03304347826,1.78434782609-1.00173913043c0.500869565217,0,1.00173913043-0.0313043478261,1.53391304348,0c0.72,0,1.3147826087-0.0939130434783,1.84695652174-0.438260869565c0.688695652174-0.469565217391,1.3147826087-0.250434782609,1.81565217391,0.187826086957c0.344347826087,0.313043478261,0.657391304348,0.688695652174,0.72,1.22086956522c0.0626086956522,0.500869565217,0.375652173913,0.939130434783,0.626086956522,1.3147826087c0.438260869565,0.688695652174,0.813913043478,1.37739130435,1.22086956522,2.06608695652c0.438260869565,0.751304347826,0.845217391304,1.53391304348,1.3147826087,2.2852173913c0.813913043478,1.37739130435,1.53391304348,2.81739130435,2.12869565217,4.32c0.469565217391,1.15826086957,1.03304347826,2.2852173913,1.78434782609,3.28695652174c1.18956521739,1.59652173913,2.06608695652,3.38086956522,2.94260869565,5.13391304348c0.0626086956522,0.125217391304,0.125217391304,0.250434782609,0.187826086957,0.406956521739c0.0626086956522,0.0939130434783,0.0939130434783,0.219130434783,0.15652173913,0.281739130435c1.3147826087,1.97217391304,1.94086956522,4.1947826087,2.56695652174,6.44869565217c0.313043478261,1.06434782609,0.72,2.09739130435,1.09565217391,3.13043478261c0.313043478261,0.845217391304-0.250434782609,1.69043478261-1.22086956522,1.62782608696z M185.697391304,34.747826087c0,0.187826086957-0.0313043478261,0.344347826087,0,0.532173913043c0.0626086956522,1.3147826087-0.532173913043,2.34782608696-1.37739130435,3.16173913043c-0.406956521739,0.406956521739-0.845217391304,0.782608695652-1.28347826087,1.12695652174c-1.62782608696,1.25217391304-3.44347826087,2.12869565217-5.32173913043,2.84869565217c-1.50260869565,0.594782608696-3.06782608696,0.970434782609-4.75826086957,0.845217391304c-0.250434782609-0.0313043478261-0.532173913043,0-0.782608695652,0.0313043478261c-2.06608695652,0.0939130434783-4.03826086957-0.375652173913-5.94782608696-0.970434782609c-0.375652173913-0.125217391304-0.72-0.344347826087-1.06434782609-0.532173913043c-0.438260869565-0.219130434783-0.845217391304-0.500869565217-1.3147826087-0.688695652174c-1.3147826087-0.594782608696-2.34782608696-1.50260869565-3.31826086957-2.44173913043c-0.187826086957-0.187826086957-0.406956521739-0.344347826087-0.594782608696-0.56347826087c-0.375652173913-0.344347826087-0.751304347826-0.657391304348-1.00173913043-1.09565217391c-0.375652173913-0.688695652174-0.813913043478-1.34608695652-1.18956521739-2.00347826087c-0.406956521739-0.688695652174-0.782608695652-1.44-1.00173913043-2.22260869565c-0.594782608696-1.97217391304-1.03304347826-4.03826086957-0.813913043478-6.16695652174c0.187826086957-1.69043478261,0.532173913043-3.38086956522,0.87652173913-5.04c0.187826086957-0.87652173913,0.657391304348-1.62782608696,1.12695652174-2.25391304348c0.313043478261-0.438260869565,0.657391304348-0.845217391304,0.939130434783-1.3147826087c0.845217391304-1.50260869565,2.09739130435-2.53565217391,3.41217391304-3.44347826087c0.907826086957-0.594782608696,1.78434782609-1.25217391304,2.7547826087-1.72173913043c2.16-1.00173913043,4.4452173913-1.53391304348,6.85565217391-1.5652173913l0.56347826087,0c0.15652173913,0,0.281739130435,0,0.406956521739-0.0313043478261c1.03304347826-0.344347826087,2.0347826087-0.15652173913,2.97391304348,0.0939130434783c1.18956521739,0.344347826087,2.37913043478,0.657391304348,3.56869565217,1.03304347826c0.532173913043,0.15652173913,1.00173913043,0.406956521739,1.47130434783,0.688695652174c0.688695652174,0.375652173913,1.37739130435,0.813913043478,2.00347826087,1.28347826087c0.939130434783,0.688695652174,1.44,1.62782608696,2.09739130435,2.56695652174c0.313043478261,0.438260869565,0.15652173913,0.970434782609,0,1.28347826087c-0.0939130434783,0.125217391304-0.187826086957,0.219130434783-0.250434782609,0.313043478261c-1.00173913043,1.09565217391-2.09739130435,2.16-3.41217391304,2.97391304348c-0.626086956522,0.375652173913-1.03304347826,0.281739130435-1.53391304348-0.219130434783c-1.12695652174-1.03304347826-2.2852173913-1.97217391304-3.66260869565-2.59826086957c-0.344347826087-0.15652173913-0.657391304348-0.344347826087-1.00173913043-0.532173913043c-0.0626086956522-0.0313043478261-0.15652173913-0.0939130434783-0.250434782609-0.125217391304c-0.0626086956522-0.0626086956522-0.0939130434783-0.0626086956522-0.125217391304-0.0626086956522c-1.37739130435-0.313043478261-2.72347826087-0.532173913043-4.03826086957-0.281739130435c-2.0347826087,0.375652173913-3.88173913043,1.22086956522-5.29043478261,2.72347826087c-1.84695652174,1.97217391304-2.84869565217,4.32-2.62956521739,7.01217391304c0.219130434783,2.47304347826,1.15826086957,4.63304347826,2.94260869565,6.44869565217c1.3147826087,1.37739130435,2.94260869565,2.12869565217,4.75826086957,2.72347826087c0.0626086956522,0.0313043478261,0.15652173913,0.0313043478261,0.281739130435,0.0626086956522c0.15652173913,0,0.313043478261,0,0.438260869565,0.0313043478261c0.187826086957,0,0.344347826087,0,0.532173913043,0.0313043478261c0.187826086957,0,0.438260869565,0.0313043478261,0.657391304348,0.0939130434783c0.970434782609,0.313043478261,1.87826086957,0.0626086956522,2.88-0.344347826087c0.907826086957-0.375652173913,1.75304347826-0.782608695652,2.62956521739-1.15826086957c0.594782608696-0.281739130435,0.907826086957-0.594782608696,0.970434782609-1.15826086957c0.0313043478261-0.15652173913,0.0626086956522-0.313043478261,0.125217391304-0.469565217391c0.0313043478261-0.15652173913,0.0313043478261-0.219130434783,0.0626086956522-0.313043478261c0.0313043478261-1.00173913043,0-1.15826086957-0.970434782609-1.15826086957c-1.25217391304,0.0313043478261-2.47304347826,0-3.7252173913,0.0313043478261c-0.250434782609,0-0.500869565217,0-0.751304347826-0.0313043478261c-0.532173913043-0.0626086956522-0.970434782609-0.500869565217-1.06434782609-1.00173913043c-0.0313043478261-0.219130434783-0.0626086956522-0.406956521739-0.0313043478261-0.594782608696c0.125217391304-0.500869565217,0.15652173913-1.00173913043,0.187826086957-1.50260869565c0.0313043478261-0.532173913043,0.0313043478261-1.06434782609,0.0939130434783-1.59652173913c0.0939130434783-0.907826086957,0.532173913043-1.3147826087,1.44-1.3147826087l5.29043478261,0l0,0.0313043478261l3.66260869565,0c0.344347826087,0.0313043478261,0.688695652174,0,1.03304347826,0.0626086956522c1.06434782609,0.125217391304,1.40869565217,0.532173913043,1.47130434783,1.5652173913c0.0313043478261,0.751304347826,0.0313043478261,1.50260869565,0.0313043478261,2.22260869565c0,1.5652173913-0.0313043478261,3.13043478261-0.0313043478261,4.69565217391z M209.288347826,41.8852173913c-0.187826086957,0.626086956522-0.500869565217,0.813913043478-1.12695652174,0.845217391304c-0.469565217391,0.0313043478261-0.907826086957,0-1.34608695652,0.0626086956522c-1.69043478261,0.125217391304-3.38086956522,0.344347826087-5.07130434783,0.438260869565c-1.28347826087,0.0626086956522-2.56695652174,0-3.85043478261,0l0.469565217391-0.469565217391c-1.53391304348,0.500869565217-2.59826086957,0.594782608696-3.66260869565,0.469565217391c-1.12695652174-0.0939130434783-2.25391304348-0.15652173913-3.34956521739-0.187826086957l-2.34782608696-0.0313043478261c-0.187826086957,0-0.375652173913,0-0.56347826087-0.0313043478261c-0.657391304348-0.0313043478261-1.03304347826-0.500869565217-0.939130434783-1.15826086957c0.0626086956522-0.313043478261,0.0626086956522-0.626086956522,0.125217391304-0.970434782609c0.187826086957-0.87652173913,0.0939130434783-1.81565217391,0.0313043478261-2.72347826087c-0.0939130434783-2.06608695652-0.344347826087-4.10086956522-0.313043478261-6.16695652174c0.0313043478261-4.22608695652-0.0626086956522-8.48347826087-0.0939130434783-12.7095652174c0-1.22086956522,0.0939130434783-2.41043478261,0.313043478261-3.63130434783c0.15652173913-0.72,0.15652173913-1.50260869565,0.250434782609-2.25391304348c0.0313043478261-0.375652173913,0-0.72,0.0313043478261-1.09565217391c0.0626086956522-0.626086956522,0.438260869565-1.03304347826,1.06434782609-1.15826086957c0.281739130435-0.0626086956522,0.626086956522-0.0939130434783,0.939130434783-0.0626086956522c3.85043478261,0.344347826087,7.73217391304,0.187826086957,11.5826086957,0.15652173913c1.90956521739,0,3.81913043478,0.0939130434783,5.85391304348,0.125217391304c0.15652173913,0.0626086956522,0.187826086957,0.0626086956522,0.219130434783,0.0626086956522c0.125217391304,0,0.250434782609-0.0313043478261,0.344347826087-0.0626086956522c0.281739130435-0.0313043478261,0.845217391304-0.0939130434783,1.12695652174,0.469565217391c0.281739130435,0.532173913043,0.187826086957,1.12695652174,0.187826086957,1.69043478261c0,0.939130434783-0.0313043478261,1.84695652174-0.187826086957,2.78608695652c-0.0939130434783,0.657391304348-0.532173913043,1.12695652174-1.3147826087,0.939130434783c-1.78434782609-0.438260869565-3.63130434783-0.281739130435-5.54086956522-0.0939130434783c-1.40869565217,0.125217391304-2.84869565217,0.219130434783-4.25739130435,0.250434782609c-0.87652173913,0-1.72173913043-0.0313043478261-2.59826086957,0c-0.250434782609,0.0313043478261-0.313043478261,0.0939130434783-0.375652173913,0.375652173913c0,0.0939130434783-0.0313043478261,0.187826086957-0.0626086956522,0.281739130435c-0.0313043478261,0.0313043478261-0.0313043478261,0.0626086956522-0.0313043478261,0.0626086956522c0.125217391304,0.782608695652,0.15652173913,1.53391304348,0.187826086957,2.31652173913c0.0313043478261,0.72,0.0939130434783,1.44,0.281739130435,2.12869565217c0.0626086956522,0.219130434783,0.125217391304,0.250434782609,0.250434782609,0.250434782609c0.125217391304,0.0313043478261,0.313043478261,0,0.469565217391,0.0313043478261c0.15652173913,0,0.406956521739,0.0313043478261,0.626086956522,0.15652173913c0.72,0.375652173913,1.53391304348,0.344347826087,2.31652173913,0.344347826087c1.59652173913,0,3.22434782609-0.0313043478261,4.82086956522,0.0626086956522c1.37739130435,0.0626086956522,2.72347826087,0.250434782609,4.10086956522,0.406956521739c0.845217391304,0.0939130434783,1.12695652174,0.469565217391,1.12695652174,1.25217391304c0,0.688695652174,0.0313043478261,1.37739130435,0,2.06608695652c-0.0313043478261,0.406956521739-0.15652173913,0.782608695652-0.250434782609,1.15826086957c-0.125217391304,0.532173913043-0.532173913043,0.813913043478-1.00173913043,0.845217391304l-0.313043478261,0c-2.59826086957-0.0939130434783-5.1652173913,0.0626086956522-7.76347826087,0.219130434783c-1.12695652174,0.0626086956522-2.2852173913,0.0313043478261-3.44347826087,0.0626086956522l-1.06434782609,0c-0.281739130435,0.0313043478261-0.375652173913,0.125217391304-0.375652173913,0.406956521739c-0.0626086956522,1.22086956522-0.187826086957,2.44173913043-0.125217391304,3.66260869565c0.0313043478261,0.87652173913,0.250434782609,1.72173913043,0.469565217391,2.56695652174c0.0939130434783,0.438260869565,0.469565217391,0.688695652174,0.907826086957,0.594782608696c1.12695652174-0.219130434783,2.22260869565-0.125217391304,3.38086956522-0.125217391304c1.12695652174,0,2.2852173913,0,3.44347826087,0.125217391304c1.15826086957,0.15652173913,2.34782608696,0.0626086956522,3.50608695652,0.0626086956522c0.532173913043,0,1.03304347826-0.0313043478261,1.5652173913,0c0.375652173913,0.0626086956522,0.751304347826,0.187826086957,1.12695652174,0.313043478261c0.469565217391,0.15652173913,0.657391304348,0.56347826087,0.688695652174,0.939130434783c0.0939130434783,1.34608695652-0.0626086956522,2.66086956522-0.438260869565,3.94434782609z"></path></svg>
</defs><g id="SvgjsG1111" transform="matrix(1,0,0,1,48.17265319824219,115.33332824707031)"><use id="SvgjsUse1110" xlink:href="#a1481040923035" fill="#9baac1" stroke="#9baac1" x="-50.8" y="-118.039423704147339"></use><use id="SvgjsUse1109" xlink:href="#t1481040923035" fill="#9baac1" x="6.46754060983658" y="-120"></use></g></svg>